<svg width="167" height="167" viewBox="0 0 167 167" fill="none" xmlns="http://www.w3.org/2000/svg">
<path d="M73.5 151.5L123 7.5L151.5 4.5L155.5 13L102.5 162H73.5V151.5Z" fill="#E5A8A8"/>
<path d="M10.5 19L57.5 142L61.5 156L76.5 138L81.5 114L41.5 5H17L10.5 19Z" fill="#81BEC3"/>
<path d="M139 58L148.778 38.2342C149.909 35.9473 152.24 34.5 154.791 34.5C158.496 34.5 161.5 37.5037 161.5 41.2089V148C161.5 156.284 154.784 163 146.5 163H116.802C114.329 163 111.918 162.227 109.906 160.79C105.537 157.67 103.809 152.004 105.691 146.976L139 58Z" fill="#F9DDAB"/>
<path fill-rule="evenodd" clip-rule="evenodd" d="M27 0C12.0883 0 0 12.0883 0 27V140C0 154.912 12.0883 167 27 167H140C154.912 167 167 154.912 167 140V27C167 12.0883 154.912 0 140 0H27ZM30.0958 9.85341C22.3726 9.85341 16.982 17.5067 19.5832 24.7786L54.2534 121.704C58.1279 132.536 73.0106 132.671 76.989 121.877C77.3426 120.918 77.5883 120.25 77.6941 119.962C77.7303 119.864 77.7501 119.81 77.7523 119.804C77.7538 119.8 77.7525 119.801 77.7525 119.797C77.7525 119.794 77.7523 119.792 77.7518 119.789L77.7503 119.784L40.5931 17.2155C38.9923 12.7966 34.7956 9.85341 30.0958 9.85341ZM80.5652 144.94C77.9307 152.264 83.3578 159.984 91.1409 159.984C95.8888 159.984 100.125 157 101.724 152.53L147.427 24.7464C150.022 17.49 144.643 9.85341 136.936 9.85341C132.235 9.85341 128.04 12.8041 126.451 17.2283L80.5652 144.94ZM138.705 159.23C150.217 159.23 159.549 149.898 159.549 138.386C159.549 115.074 127.112 109.343 119.123 131.243C114.163 144.84 124.231 159.23 138.705 159.23Z" fill="white"/>
</svg>
